<svg xmlns="http://www.w3.org/2000/svg" width="279" height="227" fill="none" viewBox="0 0 279 227"><ellipse cx="14.787" cy="14.293" fill="url(#paint0_linear_19_6)" rx="14.787" ry="14.293"/><ellipse cx="14.787" cy="80.431" fill="url(#paint1_linear_19_6)" rx="14.787" ry="14.293"/><ellipse cx="14.787" cy="146.569" fill="url(#paint2_linear_19_6)" rx="14.787" ry="14.293"/><ellipse cx="14.787" cy="212.707" fill="url(#paint3_linear_19_6)" rx="14.787" ry="14.293"/><ellipse cx="77.144" cy="14.293" fill="url(#paint4_linear_19_6)" rx="14.787" ry="14.293"/><ellipse cx="77.144" cy="80.431" fill="url(#paint5_linear_19_6)" rx="14.787" ry="14.293"/><ellipse cx="77.144" cy="146.569" fill="url(#paint6_linear_19_6)" rx="14.787" ry="14.293"/><ellipse cx="77.144" cy="212.707" fill="url(#paint7_linear_19_6)" rx="14.787" ry="14.293"/><ellipse cx="139.5" cy="14.293" fill="url(#paint8_linear_19_6)" rx="14.787" ry="14.293"/><ellipse cx="139.5" cy="80.431" fill="url(#paint9_linear_19_6)" rx="14.787" ry="14.293"/><ellipse cx="139.5" cy="146.569" fill="url(#paint10_linear_19_6)" rx="14.787" ry="14.293"/><ellipse cx="139.5" cy="212.707" fill="url(#paint11_linear_19_6)" rx="14.787" ry="14.293"/><ellipse cx="201.856" cy="14.293" fill="url(#paint12_linear_19_6)" rx="14.787" ry="14.293"/><ellipse cx="201.856" cy="80.431" fill="url(#paint13_linear_19_6)" rx="14.787" ry="14.293"/><ellipse cx="201.856" cy="146.569" fill="url(#paint14_linear_19_6)" rx="14.787" ry="14.293"/><ellipse cx="201.856" cy="212.707" fill="url(#paint15_linear_19_6)" rx="14.787" ry="14.293"/><ellipse cx="264.213" cy="14.293" fill="url(#paint16_linear_19_6)" rx="14.787" ry="14.293"/><ellipse cx="264.213" cy="80.431" fill="url(#paint17_linear_19_6)" rx="14.787" ry="14.293"/><ellipse cx="264.213" cy="146.569" fill="url(#paint18_linear_19_6)" rx="14.787" ry="14.293"/><ellipse cx="264.213" cy="212.707" fill="url(#paint19_linear_19_6)" rx="14.787" ry="14.293"/><defs><linearGradient id="paint0_linear_19_6" x1="20.969" x2="-1.562" y1="9.052" y2="22.831" gradientUnits="userSpaceOnUse"><stop stop-color="#B721FF"/><stop offset="1" stop-color="#640094"/></linearGradient><linearGradient id="paint1_linear_19_6" x1="20.969" x2="-1.562" y1="75.19" y2="88.969" gradientUnits="userSpaceOnUse"><stop stop-color="#B721FF"/><stop offset="1" stop-color="#640094"/></linearGradient><linearGradient id="paint2_linear_19_6" x1="20.969" x2="-1.562" y1="141.328" y2="155.108" gradientUnits="userSpaceOnUse"><stop stop-color="#B721FF"/><stop offset="1" stop-color="#640094"/></linearGradient><linearGradient id="paint3_linear_19_6" x1="20.969" x2="-1.562" y1="207.466" y2="221.246" gradientUnits="userSpaceOnUse"><stop stop-color="#B721FF"/><stop offset="1" stop-color="#640094"/></linearGradient><linearGradient id="paint4_linear_19_6" x1="83.325" x2="60.794" y1="9.052" y2="22.831" gradientUnits="userSpaceOnUse"><stop stop-color="#B721FF"/><stop offset="1" stop-color="#640094"/></linearGradient><linearGradient id="paint5_linear_19_6" x1="83.325" x2="60.794" y1="75.19" y2="88.969" gradientUnits="userSpaceOnUse"><stop stop-color="#B721FF"/><stop offset="1" stop-color="#640094"/></linearGradient><linearGradient id="paint6_linear_19_6" x1="83.325" x2="60.794" y1="141.328" y2="155.108" gradientUnits="userSpaceOnUse"><stop stop-color="#B721FF"/><stop offset="1" stop-color="#640094"/></linearGradient><linearGradient id="paint7_linear_19_6" x1="83.325" x2="60.794" y1="207.466" y2="221.246" gradientUnits="userSpaceOnUse"><stop stop-color="#B721FF"/><stop offset="1" stop-color="#640094"/></linearGradient><linearGradient id="paint8_linear_19_6" x1="145.681" x2="123.151" y1="9.052" y2="22.831" gradientUnits="userSpaceOnUse"><stop stop-color="#B721FF"/><stop offset="1" stop-color="#640094"/></linearGradient><linearGradient id="paint9_linear_19_6" x1="145.681" x2="123.151" y1="75.19" y2="88.969" gradientUnits="userSpaceOnUse"><stop stop-color="#B721FF"/><stop offset="1" stop-color="#640094"/></linearGradient><linearGradient id="paint10_linear_19_6" x1="145.681" x2="123.151" y1="141.328" y2="155.108" gradientUnits="userSpaceOnUse"><stop stop-color="#B721FF"/><stop offset="1" stop-color="#640094"/></linearGradient><linearGradient id="paint11_linear_19_6" x1="145.681" x2="123.151" y1="207.466" y2="221.246" gradientUnits="userSpaceOnUse"><stop stop-color="#B721FF"/><stop offset="1" stop-color="#640094"/></linearGradient><linearGradient id="paint12_linear_19_6" x1="208.038" x2="185.507" y1="9.052" y2="22.831" gradientUnits="userSpaceOnUse"><stop stop-color="#B721FF"/><stop offset="1" stop-color="#640094"/></linearGradient><linearGradient id="paint13_linear_19_6" x1="208.038" x2="185.507" y1="75.19" y2="88.969" gradientUnits="userSpaceOnUse"><stop stop-color="#B721FF"/><stop offset="1" stop-color="#640094"/></linearGradient><linearGradient id="paint14_linear_19_6" x1="208.038" x2="185.507" y1="141.328" y2="155.108" gradientUnits="userSpaceOnUse"><stop stop-color="#B721FF"/><stop offset="1" stop-color="#640094"/></linearGradient><linearGradient id="paint15_linear_19_6" x1="208.038" x2="185.507" y1="207.466" y2="221.246" gradientUnits="userSpaceOnUse"><stop stop-color="#B721FF"/><stop offset="1" stop-color="#640094"/></linearGradient><linearGradient id="paint16_linear_19_6" x1="270.394" x2="247.863" y1="9.052" y2="22.831" gradientUnits="userSpaceOnUse"><stop stop-color="#B721FF"/><stop offset="1" stop-color="#640094"/></linearGradient><linearGradient id="paint17_linear_19_6" x1="270.394" x2="247.863" y1="75.19" y2="88.969" gradientUnits="userSpaceOnUse"><stop stop-color="#B721FF"/><stop offset="1" stop-color="#640094"/></linearGradient><linearGradient id="paint18_linear_19_6" x1="270.394" x2="247.863" y1="141.328" y2="155.108" gradientUnits="userSpaceOnUse"><stop stop-color="#B721FF"/><stop offset="1" stop-color="#640094"/></linearGradient><linearGradient id="paint19_linear_19_6" x1="270.394" x2="247.863" y1="207.466" y2="221.246" gradientUnits="userSpaceOnUse"><stop stop-color="#B721FF"/><stop offset="1" stop-color="#640094"/></linearGradient></defs></svg>