<svg xmlns="http://www.w3.org/2000/svg" width="279" height="180" fill="none" viewBox="0 0 279 180"><ellipse cx="14.787" cy="33.431" fill="url(#paint0_linear_19_27)" rx="14.787" ry="14.293"/><ellipse cx="14.787" cy="99.569" fill="url(#paint1_linear_19_27)" rx="14.787" ry="14.293"/><ellipse cx="14.787" cy="165.707" fill="url(#paint2_linear_19_27)" rx="14.787" ry="14.293"/><ellipse cx="77.144" cy="33.431" fill="url(#paint3_linear_19_27)" rx="14.787" ry="14.293"/><ellipse cx="77.144" cy="99.569" fill="url(#paint4_linear_19_27)" rx="14.787" ry="14.293"/><ellipse cx="77.144" cy="165.707" fill="url(#paint5_linear_19_27)" rx="14.787" ry="14.293"/><ellipse cx="139.5" cy="33.431" fill="url(#paint6_linear_19_27)" rx="14.787" ry="14.293"/><ellipse cx="139.5" cy="99.569" fill="url(#paint7_linear_19_27)" rx="14.787" ry="14.293"/><ellipse cx="139.5" cy="165.707" fill="url(#paint8_linear_19_27)" rx="14.787" ry="14.293"/><ellipse cx="201.856" cy="33.431" fill="url(#paint9_linear_19_27)" rx="14.787" ry="14.293"/><ellipse cx="201.856" cy="99.569" fill="url(#paint10_linear_19_27)" rx="14.787" ry="14.293"/><ellipse cx="201.856" cy="165.707" fill="url(#paint11_linear_19_27)" rx="14.787" ry="14.293"/><ellipse cx="264.213" cy="33.431" fill="url(#paint12_linear_19_27)" rx="14.787" ry="14.293"/><ellipse cx="264.213" cy="99.569" fill="url(#paint13_linear_19_27)" rx="14.787" ry="14.293"/><ellipse cx="264.213" cy="165.707" fill="url(#paint14_linear_19_27)" rx="14.787" ry="14.293"/><defs><linearGradient id="paint0_linear_19_27" x1="20.969" x2="-1.562" y1="28.19" y2="41.97" gradientUnits="userSpaceOnUse"><stop stop-color="#21D4FD"/><stop offset="1" stop-color="#00A3C9"/></linearGradient><linearGradient id="paint1_linear_19_27" x1="20.969" x2="-1.562" y1="94.328" y2="108.108" gradientUnits="userSpaceOnUse"><stop stop-color="#21D4FD"/><stop offset="1" stop-color="#00A3C9"/></linearGradient><linearGradient id="paint2_linear_19_27" x1="20.969" x2="-1.562" y1="160.466" y2="174.246" gradientUnits="userSpaceOnUse"><stop stop-color="#21D4FD"/><stop offset="1" stop-color="#00A3C9"/></linearGradient><linearGradient id="paint3_linear_19_27" x1="83.325" x2="60.794" y1="28.19" y2="41.97" gradientUnits="userSpaceOnUse"><stop stop-color="#21D4FD"/><stop offset="1" stop-color="#00A3C9"/></linearGradient><linearGradient id="paint4_linear_19_27" x1="83.325" x2="60.794" y1="94.328" y2="108.108" gradientUnits="userSpaceOnUse"><stop stop-color="#21D4FD"/><stop offset="1" stop-color="#00A3C9"/></linearGradient><linearGradient id="paint5_linear_19_27" x1="83.325" x2="60.794" y1="160.466" y2="174.246" gradientUnits="userSpaceOnUse"><stop stop-color="#21D4FD"/><stop offset="1" stop-color="#00A3C9"/></linearGradient><linearGradient id="paint6_linear_19_27" x1="145.681" x2="123.15" y1="28.19" y2="41.97" gradientUnits="userSpaceOnUse"><stop stop-color="#21D4FD"/><stop offset="1" stop-color="#00A3C9"/></linearGradient><linearGradient id="paint7_linear_19_27" x1="145.681" x2="123.15" y1="94.328" y2="108.108" gradientUnits="userSpaceOnUse"><stop stop-color="#21D4FD"/><stop offset="1" stop-color="#00A3C9"/></linearGradient><linearGradient id="paint8_linear_19_27" x1="145.681" x2="123.15" y1="160.466" y2="174.246" gradientUnits="userSpaceOnUse"><stop stop-color="#21D4FD"/><stop offset="1" stop-color="#00A3C9"/></linearGradient><linearGradient id="paint9_linear_19_27" x1="208.038" x2="185.507" y1="28.19" y2="41.97" gradientUnits="userSpaceOnUse"><stop stop-color="#21D4FD"/><stop offset="1" stop-color="#00A3C9"/></linearGradient><linearGradient id="paint10_linear_19_27" x1="208.038" x2="185.507" y1="94.328" y2="108.108" gradientUnits="userSpaceOnUse"><stop stop-color="#21D4FD"/><stop offset="1" stop-color="#00A3C9"/></linearGradient><linearGradient id="paint11_linear_19_27" x1="208.038" x2="185.507" y1="160.466" y2="174.246" gradientUnits="userSpaceOnUse"><stop stop-color="#21D4FD"/><stop offset="1" stop-color="#00A3C9"/></linearGradient><linearGradient id="paint12_linear_19_27" x1="270.394" x2="247.863" y1="28.19" y2="41.97" gradientUnits="userSpaceOnUse"><stop stop-color="#21D4FD"/><stop offset="1" stop-color="#00A3C9"/></linearGradient><linearGradient id="paint13_linear_19_27" x1="270.394" x2="247.863" y1="94.328" y2="108.108" gradientUnits="userSpaceOnUse"><stop stop-color="#21D4FD"/><stop offset="1" stop-color="#00A3C9"/></linearGradient><linearGradient id="paint14_linear_19_27" x1="270.394" x2="247.863" y1="160.466" y2="174.246" gradientUnits="userSpaceOnUse"><stop stop-color="#21D4FD"/><stop offset="1" stop-color="#00A3C9"/></linearGradient></defs></svg>