<svg width="279" height="227" viewBox="0 0 279 227" fill="none" xmlns="http://www.w3.org/2000/svg">
<ellipse cx="14.7875" cy="14.2928" rx="14.7875" ry="14.2928" fill="url(#paint0_linear_19_6)"/>
<ellipse cx="14.7875" cy="80.431" rx="14.7875" ry="14.2928" fill="url(#paint1_linear_19_6)"/>
<ellipse cx="14.7875" cy="146.569" rx="14.7875" ry="14.2928" fill="url(#paint2_linear_19_6)"/>
<ellipse cx="14.7875" cy="212.707" rx="14.7875" ry="14.2928" fill="url(#paint3_linear_19_6)"/>
<ellipse cx="77.1437" cy="14.2928" rx="14.7875" ry="14.2928" fill="url(#paint4_linear_19_6)"/>
<ellipse cx="77.1437" cy="80.431" rx="14.7875" ry="14.2928" fill="url(#paint5_linear_19_6)"/>
<ellipse cx="77.1437" cy="146.569" rx="14.7875" ry="14.2928" fill="url(#paint6_linear_19_6)"/>
<ellipse cx="77.1437" cy="212.707" rx="14.7875" ry="14.2928" fill="url(#paint7_linear_19_6)"/>
<ellipse cx="139.5" cy="14.2928" rx="14.7875" ry="14.2928" fill="url(#paint8_linear_19_6)"/>
<ellipse cx="139.5" cy="80.431" rx="14.7875" ry="14.2928" fill="url(#paint9_linear_19_6)"/>
<ellipse cx="139.5" cy="146.569" rx="14.7875" ry="14.2928" fill="url(#paint10_linear_19_6)"/>
<ellipse cx="139.5" cy="212.707" rx="14.7875" ry="14.2928" fill="url(#paint11_linear_19_6)"/>
<ellipse cx="201.856" cy="14.2928" rx="14.7875" ry="14.2928" fill="url(#paint12_linear_19_6)"/>
<ellipse cx="201.856" cy="80.431" rx="14.7875" ry="14.2928" fill="url(#paint13_linear_19_6)"/>
<ellipse cx="201.856" cy="146.569" rx="14.7875" ry="14.2928" fill="url(#paint14_linear_19_6)"/>
<ellipse cx="201.856" cy="212.707" rx="14.7875" ry="14.2928" fill="url(#paint15_linear_19_6)"/>
<ellipse cx="264.213" cy="14.2928" rx="14.7875" ry="14.2928" fill="url(#paint16_linear_19_6)"/>
<ellipse cx="264.213" cy="80.431" rx="14.7875" ry="14.2928" fill="url(#paint17_linear_19_6)"/>
<ellipse cx="264.213" cy="146.569" rx="14.7875" ry="14.2928" fill="url(#paint18_linear_19_6)"/>
<ellipse cx="264.213" cy="212.707" rx="14.7875" ry="14.2928" fill="url(#paint19_linear_19_6)"/>
<defs>
<linearGradient id="paint0_linear_19_6" x1="20.9688" y1="9.05214" x2="-1.56204" y2="22.8314" gradientUnits="userSpaceOnUse">
<stop stop-color="#B721FF"/>
<stop offset="1" stop-color="#640094"/>
</linearGradient>
<linearGradient id="paint1_linear_19_6" x1="20.9688" y1="75.1902" x2="-1.56204" y2="88.9695" gradientUnits="userSpaceOnUse">
<stop stop-color="#B721FF"/>
<stop offset="1" stop-color="#640094"/>
</linearGradient>
<linearGradient id="paint2_linear_19_6" x1="20.9688" y1="141.328" x2="-1.56204" y2="155.108" gradientUnits="userSpaceOnUse">
<stop stop-color="#B721FF"/>
<stop offset="1" stop-color="#640094"/>
</linearGradient>
<linearGradient id="paint3_linear_19_6" x1="20.9688" y1="207.466" x2="-1.56204" y2="221.246" gradientUnits="userSpaceOnUse">
<stop stop-color="#B721FF"/>
<stop offset="1" stop-color="#640094"/>
</linearGradient>
<linearGradient id="paint4_linear_19_6" x1="83.325" y1="9.05214" x2="60.7942" y2="22.8314" gradientUnits="userSpaceOnUse">
<stop stop-color="#B721FF"/>
<stop offset="1" stop-color="#640094"/>
</linearGradient>
<linearGradient id="paint5_linear_19_6" x1="83.325" y1="75.1902" x2="60.7942" y2="88.9695" gradientUnits="userSpaceOnUse">
<stop stop-color="#B721FF"/>
<stop offset="1" stop-color="#640094"/>
</linearGradient>
<linearGradient id="paint6_linear_19_6" x1="83.325" y1="141.328" x2="60.7942" y2="155.108" gradientUnits="userSpaceOnUse">
<stop stop-color="#B721FF"/>
<stop offset="1" stop-color="#640094"/>
</linearGradient>
<linearGradient id="paint7_linear_19_6" x1="83.325" y1="207.466" x2="60.7942" y2="221.246" gradientUnits="userSpaceOnUse">
<stop stop-color="#B721FF"/>
<stop offset="1" stop-color="#640094"/>
</linearGradient>
<linearGradient id="paint8_linear_19_6" x1="145.681" y1="9.05214" x2="123.151" y2="22.8314" gradientUnits="userSpaceOnUse">
<stop stop-color="#B721FF"/>
<stop offset="1" stop-color="#640094"/>
</linearGradient>
<linearGradient id="paint9_linear_19_6" x1="145.681" y1="75.1902" x2="123.151" y2="88.9695" gradientUnits="userSpaceOnUse">
<stop stop-color="#B721FF"/>
<stop offset="1" stop-color="#640094"/>
</linearGradient>
<linearGradient id="paint10_linear_19_6" x1="145.681" y1="141.328" x2="123.151" y2="155.108" gradientUnits="userSpaceOnUse">
<stop stop-color="#B721FF"/>
<stop offset="1" stop-color="#640094"/>
</linearGradient>
<linearGradient id="paint11_linear_19_6" x1="145.681" y1="207.466" x2="123.151" y2="221.246" gradientUnits="userSpaceOnUse">
<stop stop-color="#B721FF"/>
<stop offset="1" stop-color="#640094"/>
</linearGradient>
<linearGradient id="paint12_linear_19_6" x1="208.038" y1="9.05214" x2="185.507" y2="22.8314" gradientUnits="userSpaceOnUse">
<stop stop-color="#B721FF"/>
<stop offset="1" stop-color="#640094"/>
</linearGradient>
<linearGradient id="paint13_linear_19_6" x1="208.038" y1="75.1902" x2="185.507" y2="88.9695" gradientUnits="userSpaceOnUse">
<stop stop-color="#B721FF"/>
<stop offset="1" stop-color="#640094"/>
</linearGradient>
<linearGradient id="paint14_linear_19_6" x1="208.038" y1="141.328" x2="185.507" y2="155.108" gradientUnits="userSpaceOnUse">
<stop stop-color="#B721FF"/>
<stop offset="1" stop-color="#640094"/>
</linearGradient>
<linearGradient id="paint15_linear_19_6" x1="208.038" y1="207.466" x2="185.507" y2="221.246" gradientUnits="userSpaceOnUse">
<stop stop-color="#B721FF"/>
<stop offset="1" stop-color="#640094"/>
</linearGradient>
<linearGradient id="paint16_linear_19_6" x1="270.394" y1="9.05214" x2="247.863" y2="22.8314" gradientUnits="userSpaceOnUse">
<stop stop-color="#B721FF"/>
<stop offset="1" stop-color="#640094"/>
</linearGradient>
<linearGradient id="paint17_linear_19_6" x1="270.394" y1="75.1902" x2="247.863" y2="88.9695" gradientUnits="userSpaceOnUse">
<stop stop-color="#B721FF"/>
<stop offset="1" stop-color="#640094"/>
</linearGradient>
<linearGradient id="paint18_linear_19_6" x1="270.394" y1="141.328" x2="247.863" y2="155.108" gradientUnits="userSpaceOnUse">
<stop stop-color="#B721FF"/>
<stop offset="1" stop-color="#640094"/>
</linearGradient>
<linearGradient id="paint19_linear_19_6" x1="270.394" y1="207.466" x2="247.863" y2="221.246" gradientUnits="userSpaceOnUse">
<stop stop-color="#B721FF"/>
<stop offset="1" stop-color="#640094"/>
</linearGradient>
</defs>
</svg>
