<svg width="430" height="2034" viewBox="0 0 430 2034" fill="none" xmlns="http://www.w3.org/2000/svg">
<g filter="url(#filter0_f_9_207)">
<path d="M-2.49997 237.5C262.3 263.9 396.167 95.5 430 8C556.5 333.833 750.5 990.6 514.5 1011C219.5 1036.5 430 1498.5 296.5 1755C163 2011.5 129.5 2146 -338.5 1889.5C-712.9 1684.3 -344.833 1423.67 -114 1319C67.3333 1157.33 382.2 815.6 191 742C-48 650 -333.5 204.5 -2.49997 237.5Z" fill="url(#paint0_linear_9_207)"/>
<path d="M-2.49997 237.5C262.3 263.9 396.167 95.5 430 8C556.5 333.833 750.5 990.6 514.5 1011C219.5 1036.5 430 1498.5 296.5 1755C163 2011.5 129.5 2146 -338.5 1889.5C-712.9 1684.3 -344.833 1423.67 -114 1319C67.3333 1157.33 382.2 815.6 191 742C-48 650 -333.5 204.5 -2.49997 237.5Z" stroke="black"/>
</g>
<defs>
<filter id="filter0_f_9_207" x="-505.349" y="0.616028" width="1137.5" height="2033.18" filterUnits="userSpaceOnUse" color-interpolation-filters="sRGB">
<feFlood flood-opacity="0" result="BackgroundImageFix"/>
<feBlend mode="normal" in="SourceGraphic" in2="BackgroundImageFix" result="shape"/>
<feGaussianBlur stdDeviation="3" result="effect1_foregroundBlur_9_207"/>
</filter>
<linearGradient id="paint0_linear_9_207" x1="1040" y1="607" x2="-640" y2="953.5" gradientUnits="userSpaceOnUse">
<stop stop-color="#6E79FE"/>
<stop offset="1" stop-color="#B721FF"/>
</linearGradient>
</defs>
</svg>
